<svg width="65" height="55" viewBox="0 0 65 55" fill="none" xmlns="http://www.w3.org/2000/svg">
<path fill-rule="evenodd" clip-rule="evenodd" d="M58.2671 0.376272C59.0663 0.0431033 59.941 -0.0718044 60.8003 0.0435077C61.6595 0.15882 62.4718 0.500137 63.1527 1.03193C63.8336 1.56373 64.3581 2.26656 64.6717 3.06728C64.9852 3.868 65.0764 4.73733 64.9357 5.58478L57.6009 49.6521C56.8894 53.9029 52.1807 56.3405 48.2449 54.2232C44.9526 52.4518 40.0628 49.7226 35.6645 46.8749C33.4654 45.4494 26.7289 40.8848 27.5568 37.6367C28.2683 34.8594 39.5874 24.4232 46.0554 18.2185C48.5941 15.7808 47.4363 14.3745 44.4384 16.6168C36.9904 22.1841 25.0407 30.6503 21.0887 33.0336C17.6024 35.1349 15.7849 35.4937 13.6117 35.1349C9.64674 34.4815 5.96965 33.4692 2.96847 32.236C-1.087 30.5703 -0.88972 25.0478 2.96524 23.4398L58.2671 0.376272Z" fill="#F8A235"/>
</svg>
